<svg version="1.1" preserveAspectRatio="none" xmlns="http://www.w3.org/2000/svg" width="500" height="500" viewBox="0 0 500 500"><rect width="100%" height="100%" fill="#F1F1F1" fill-opacity="1"/><svg viewBox="63.0189 42.6593 380.3857 219.0475" width="333" height="191.76014634619548" x="83.5px" y="154.1199px" xmlns="http://www.w3.org/2000/svg" xmlns:xlink="http://www.w3.org/1999/xlink" preserveAspectRatio="none"><defs></defs><style>.companyName {fill:#3B3B6B;fill-opacity:1;}.icon1 {fill:#D24848;fill-opacity:1;}.icon2 {fill:#CCAF60;fill-opacity:1;}.icon3 {fill:#797468;fill-opacity:1;}.icon3-str {stroke:#797468;stroke-opacity:1;}</style><g opacity="1" transform="rotate(0 63.0189 225.7068)">
<svg width="380.3857" height="36" x="63.0189" y="225.7068" version="1.1" preserveAspectRatio="none" viewBox="3.76 -29.68 395.6 37.44">
  <g transform="matrix(1 0 0 1 0 0)" class="companyName"><path id="id-D6z1nYkh19" d="M34.40 0L29.48 0L29.44-18.56L20.24-3.20L17.92-3.20L8.72-18.32L8.72 0L3.76 0L3.76-28L8.04-28L19.16-9.44L30.08-28L34.36-28L34.40 0Z M57.16-21.36L62.16-21.36L62.16 0L57.40 0L57.40-2.72Q56.20-1.28 54.40-0.50Q52.60 0.28 50.52 0.28L50.52 0.28Q46.24 0.28 43.78-2.10Q41.32-4.48 41.32-9.16L41.32-9.16L41.32-21.36L46.32-21.36L46.32-9.84Q46.32-6.96 47.62-5.54Q48.92-4.12 51.32-4.12L51.32-4.12Q54-4.12 55.58-5.78Q57.16-7.44 57.16-10.56L57.16-10.56L57.16-21.36Z M73.32-4L85.40-4L85.40 0L66.96 0L66.96-3.16L78.68-17.36L67.20-17.36L67.20-21.36L85.08-21.36L85.08-18.20L73.32-4Z M90 0L90-21.36L95-21.36L95 0L90 0Z M117.68-21.36L122.44-21.36L122.44 7.76L117.44 7.76L117.44-2.60Q114.92 0.28 110.60 0.28L110.60 0.28Q107.48 0.28 105.02-1.08Q102.56-2.44 101.18-4.92Q99.80-7.40 99.80-10.68L99.80-10.68Q99.80-13.92 101.20-16.40Q102.60-18.88 105.04-20.24Q107.48-21.60 110.60-21.60L110.60-21.60Q112.80-21.60 114.62-20.84Q116.44-20.08 117.68-18.56L117.68-18.56L117.68-21.36ZM111.16-4Q113.92-4 115.72-5.84Q117.52-7.68 117.52-10.68L117.52-10.68Q117.52-13.68 115.72-15.52Q113.92-17.36 111.16-17.36L111.16-17.36Q108.40-17.36 106.62-15.52Q104.84-13.68 104.84-10.68L104.84-10.68Q104.84-7.68 106.62-5.84Q108.40-4 111.16-4L111.16-4Z M137.16-21.60Q141.88-21.60 144.38-19.34Q146.88-17.08 146.88-12.52L146.88-12.52L146.88 0L142.16 0L142.16-2.60Q141.24-1.20 139.54-0.46Q137.84 0.28 135.44 0.28L135.44 0.28Q133.04 0.28 131.24-0.54Q129.44-1.36 128.46-2.82Q127.48-4.28 127.48-6.12L127.48-6.12Q127.48-9 129.62-10.74Q131.76-12.48 136.36-12.48L136.36-12.48L141.88-12.48L141.88-12.80Q141.88-15.04 140.54-16.24Q139.20-17.44 136.56-17.44L136.56-17.44Q134.76-17.44 133.02-16.88Q131.28-16.32 130.08-15.32L130.08-15.32L128.12-18.96Q129.80-20.24 132.16-20.92Q134.52-21.60 137.16-21.60L137.16-21.60ZM136.48-3.36Q138.36-3.36 139.82-4.22Q141.28-5.08 141.88-6.68L141.88-6.68L141.88-9.16L136.72-9.16Q132.40-9.16 132.40-6.32L132.40-6.32Q132.40-4.96 133.48-4.16Q134.56-3.36 136.48-3.36L136.48-3.36Z M153.28 0L153.28-29.68L158.28-29.68L158.28 0L153.28 0Z M164.84 0L164.84-21.36L169.84-21.36L169.84 0L164.84 0Z M192.52-21.36L197.28-21.36L197.28 7.76L192.28 7.76L192.28-2.60Q189.76 0.28 185.44 0.28L185.44 0.28Q182.32 0.28 179.86-1.08Q177.40-2.44 176.02-4.92Q174.64-7.40 174.64-10.68L174.64-10.68Q174.64-13.92 176.04-16.40Q177.44-18.88 179.88-20.24Q182.32-21.60 185.44-21.60L185.44-21.60Q187.64-21.60 189.46-20.84Q191.28-20.08 192.52-18.56L192.52-18.56L192.52-21.36ZM186-4Q188.76-4 190.56-5.84Q192.36-7.68 192.36-10.68L192.36-10.68Q192.36-13.68 190.56-15.52Q188.76-17.36 186-17.36L186-17.36Q183.24-17.36 181.46-15.52Q179.68-13.68 179.68-10.68L179.68-10.68Q179.68-7.68 181.46-5.84Q183.24-4 186-4L186-4Z M234.88 0L225-11.72L220.56-7.16L220.56 0L215.36 0L215.36-28L220.56-28L220.56-13.64L234.40-28L240.24-28L228.48-15.48L240.96 0L234.88 0Z M252.72 0.28Q249.48 0.28 246.88-1.12Q244.28-2.52 242.82-5.02Q241.36-7.52 241.36-10.68L241.36-10.68Q241.36-13.84 242.82-16.32Q244.28-18.80 246.88-20.20Q249.48-21.60 252.72-21.60L252.72-21.60Q256-21.60 258.60-20.20Q261.20-18.80 262.66-16.32Q264.12-13.84 264.12-10.68L264.12-10.68Q264.12-7.52 262.66-5.02Q261.20-2.52 258.60-1.12Q256 0.28 252.72 0.28L252.72 0.28ZM252.72-4Q255.48-4 257.28-5.84Q259.08-7.68 259.08-10.68L259.08-10.68Q259.08-13.68 257.28-15.52Q255.48-17.36 252.72-17.36L252.72-17.36Q249.96-17.36 248.18-15.52Q246.40-13.68 246.40-10.68L246.40-10.68Q246.40-7.68 248.18-5.84Q249.96-4 252.72-4L252.72-4ZM248.80-24.72Q247.76-24.72 247.08-25.40Q246.40-26.08 246.40-27.12L246.40-27.12Q246.40-28.20 247.08-28.88Q247.76-29.56 248.80-29.56L248.80-29.56Q249.84-29.56 250.52-28.88Q251.20-28.20 251.20-27.12L251.20-27.12Q251.20-26.08 250.52-25.40Q249.84-24.72 248.80-24.72L248.80-24.72ZM256.56-24.72Q255.52-24.72 254.84-25.40Q254.16-26.08 254.16-27.12L254.16-27.12Q254.16-28.20 254.84-28.88Q255.52-29.56 256.56-29.56L256.56-29.56Q257.60-29.56 258.28-28.88Q258.96-28.20 258.96-27.12L258.96-27.12Q258.96-26.08 258.28-25.40Q257.60-24.72 256.56-24.72L256.56-24.72Z M273.20-4L285.28-4L285.28 0L266.84 0L266.84-3.16L278.56-17.36L267.08-17.36L267.08-21.36L284.96-21.36L284.96-18.20L273.20-4Z M305.68-21.36L310.44-21.36L310.44 7.76L305.44 7.76L305.44-2.60Q302.92 0.28 298.60 0.28L298.60 0.28Q295.48 0.28 293.02-1.08Q290.56-2.44 289.18-4.92Q287.80-7.40 287.80-10.68L287.80-10.68Q287.80-13.92 289.20-16.40Q290.60-18.88 293.04-20.24Q295.48-21.60 298.60-21.60L298.60-21.60Q300.80-21.60 302.62-20.84Q304.44-20.08 305.68-18.56L305.68-18.56L305.68-21.36ZM299.16-4Q301.92-4 303.72-5.84Q305.52-7.68 305.52-10.68L305.52-10.68Q305.52-13.68 303.72-15.52Q301.92-17.36 299.16-17.36L299.16-17.36Q296.40-17.36 294.62-15.52Q292.84-13.68 292.84-10.68L292.84-10.68Q292.84-7.68 294.62-5.84Q296.40-4 299.16-4L299.16-4Z M325.16-21.60Q329.88-21.60 332.38-19.34Q334.88-17.08 334.88-12.52L334.88-12.52L334.88 0L330.16 0L330.16-2.60Q329.24-1.20 327.54-0.46Q325.84 0.28 323.44 0.28L323.44 0.28Q321.04 0.28 319.24-0.54Q317.44-1.36 316.46-2.82Q315.48-4.28 315.48-6.12L315.48-6.12Q315.48-9 317.62-10.74Q319.76-12.48 324.36-12.48L324.36-12.48L329.88-12.48L329.88-12.80Q329.88-15.04 328.54-16.24Q327.20-17.44 324.56-17.44L324.56-17.44Q322.76-17.44 321.02-16.88Q319.28-16.32 318.08-15.32L318.08-15.32L316.12-18.96Q317.80-20.24 320.16-20.92Q322.52-21.60 325.16-21.60L325.16-21.60ZM324.48-3.36Q326.36-3.36 327.82-4.22Q329.28-5.08 329.88-6.68L329.88-6.68L329.88-9.16L324.72-9.16Q320.40-9.16 320.40-6.32L320.40-6.32Q320.40-4.96 321.48-4.16Q322.56-3.36 324.48-3.36L324.48-3.36Z M346.04-18.24Q348.20-21.60 353.64-21.60L353.64-21.60L353.64-16.84Q353-16.96 352.48-16.96L352.48-16.96Q349.56-16.96 347.92-15.26Q346.28-13.56 346.28-10.36L346.28-10.36L346.28 0L341.28 0L341.28-21.36L346.04-21.36L346.04-18.24Z M365.92-21.60Q370.64-21.60 373.14-19.34Q375.64-17.08 375.64-12.52L375.64-12.52L375.64 0L370.92 0L370.92-2.60Q370-1.20 368.30-0.46Q366.60 0.28 364.20 0.28L364.20 0.28Q361.80 0.28 360-0.54Q358.20-1.36 357.22-2.82Q356.24-4.28 356.24-6.12L356.24-6.12Q356.24-9 358.38-10.74Q360.52-12.48 365.12-12.48L365.12-12.48L370.64-12.48L370.64-12.80Q370.64-15.04 369.30-16.24Q367.96-17.44 365.32-17.44L365.32-17.44Q363.52-17.44 361.78-16.88Q360.04-16.32 358.84-15.32L358.84-15.32L356.88-18.96Q358.56-20.24 360.92-20.92Q363.28-21.60 365.92-21.60L365.92-21.60ZM365.24-3.36Q367.12-3.36 368.58-4.22Q370.04-5.08 370.64-6.68L370.64-6.68L370.64-9.16L365.48-9.16Q361.16-9.16 361.16-6.32L361.16-6.32Q361.16-4.96 362.24-4.16Q363.32-3.36 365.24-3.36L365.24-3.36Z M388.64 0.28Q386.04 0.28 383.56-0.40Q381.08-1.08 379.60-2.12L379.60-2.12L381.52-5.92Q382.96-4.96 384.98-4.38Q387-3.80 388.96-3.80L388.96-3.80Q393.44-3.80 393.44-6.16L393.44-6.16Q393.44-7.28 392.30-7.72Q391.16-8.16 388.64-8.56L388.64-8.56Q386-8.96 384.34-9.48Q382.68-10 381.46-11.30Q380.24-12.60 380.24-14.92L380.24-14.92Q380.24-17.96 382.78-19.78Q385.32-21.60 389.64-21.60L389.64-21.60Q391.84-21.60 394.04-21.10Q396.24-20.60 397.64-19.76L397.64-19.76L395.72-15.96Q393-17.56 389.60-17.56L389.60-17.56Q387.40-17.56 386.26-16.90Q385.12-16.24 385.12-15.16L385.12-15.16Q385.12-13.96 386.34-13.46Q387.56-12.96 390.12-12.52L390.12-12.52Q392.68-12.12 394.32-11.60Q395.96-11.08 397.14-9.84Q398.32-8.60 398.32-6.32L398.32-6.32Q398.32-3.32 395.72-1.52Q393.12 0.28 388.64 0.28L388.64 0.28Z"/></g>
</svg>
</g><g opacity="1" transform="rotate(0 158.1154 42.6593)">
<svg width="190.1928" height="153.0475" x="158.1154" y="42.6593" version="1.1" preserveAspectRatio="none" viewBox="0.028999805450439453 50.02183151245117 511.94097900390625 411.9571838378906">
  <g transform="matrix(1 0 0 1 0 0)" class="icon1"><g><g><g><path d="M244.244,369.988c-2.21,0-4.039-1.789-4.039-4c0-2.209,1.75-3.998,3.953-3.998h0.086c2.203,0,4,1.789,4,3.998     C248.243,368.199,246.446,369.988,244.244,369.988z"></path></g></g><g><g><path d="M244.244,393.986c-2.21,0-4.039-1.789-4.039-4s1.75-4,3.953-4h0.086c2.203,0,4,1.789,4,4     S246.446,393.986,244.244,393.986z"></path></g></g><g><g><path d="M268.24,369.988c-2.21,0-4.038-1.789-4.038-4c0-2.209,1.75-3.998,3.952-3.998h0.086c2.203,0,4,1.789,4,3.998     C272.24,368.199,270.443,369.988,268.24,369.988z"></path></g></g><g><g><path d="M256.242,305.996c-2.211,0-4.039-1.789-4.039-4s1.75-4,3.953-4h0.086c2.203,0,4,1.789,4,4     S258.445,305.996,256.242,305.996z"></path></g></g><g><g><path d="M256.242,194.013c-2.211,0-4.039-1.789-4.039-4s1.75-4,3.953-4h0.086c2.203,0,4,1.789,4,4     S258.445,194.013,256.242,194.013z"></path></g></g><g><g><path d="M238.244,198.833c-2.211,0-4.039-1.789-4.039-4s1.75-4,3.953-4h0.086c2.203,0,4,1.789,4,4     S240.447,198.833,238.244,198.833z"></path></g></g><g><g><path d="M225.074,212.011c-2.21,0-4.039-1.789-4.039-4c0-2.211,1.75-4,3.953-4h0.085c2.203,0,4,1.789,4,4     C229.073,210.222,227.276,212.011,225.074,212.011z"></path></g></g><g><g><path d="M220.246,230.008c-2.21,0-4.038-1.789-4.038-3.999c0-2.211,1.75-4,3.952-4h0.086c2.203,0,4,1.789,4,4     C224.246,228.22,222.449,230.008,220.246,230.008z"></path></g></g><g><g><path d="M292.238,230.008c-2.211,0-4.039-1.789-4.039-3.999c0-2.211,1.75-4,3.953-4h0.086c2.203,0,3.999,1.789,3.999,4     C296.237,228.22,294.441,230.008,292.238,230.008z"></path></g></g><g><g><path d="M287.426,212.003c-2.211,0-4.038-1.789-4.038-4c0-2.211,1.749-4,3.952-4h0.086c2.203,0,4,1.789,4,4     C291.426,210.214,289.629,212.003,287.426,212.003z"></path></g></g><g><g><path d="M274.256,198.833c-2.211,0-4.039-1.789-4.039-4s1.75-4,3.953-4h0.086c2.203,0,4,1.789,4,4     S276.459,198.833,274.256,198.833z"></path></g></g><g><g><path d="M268.24,393.986c-2.21,0-4.038-1.789-4.038-4s1.75-4,3.952-4h0.086c2.203,0,4,1.789,4,4S270.443,393.986,268.24,393.986z     "></path></g></g><g><g><path d="M256.242,381.988c-2.211,0-4.039-1.789-4.039-4s1.75-4,3.953-4h0.086c2.203,0,4,1.789,4,4     S258.445,381.988,256.242,381.988z"></path></g></g><g><g><path d="M355.988,457.979H156.012c-2.211,0-4-1.789-4-4V166.016c0-2.211,1.789-4,4-4h199.977c2.211,0,4,1.789,4,4v287.962     C359.988,456.189,358.199,457.979,355.988,457.979z M160.011,449.98h191.979V170.015H160.011V449.98z"></path></g></g><g><g><g><path d="M28.269,345.992c-2.211,0-4.039-1.789-4.039-4s1.75-4,3.953-4h0.086c2.203,0,3.999,1.789,3.999,4      S30.471,345.992,28.269,345.992z"></path></g></g><g><g><path d="M28.269,433.982c-2.211,0-4.039-1.789-4.039-4s1.75-4,3.953-4h0.086c2.203,0,3.999,1.789,3.999,4      S30.471,433.982,28.269,433.982z"></path></g></g><g><g><path d="M116.258,345.992c-2.21,0-4.039-1.789-4.039-4s1.75-4,3.953-4h0.086c2.203,0,4,1.789,4,4      S118.461,345.992,116.258,345.992z"></path></g></g><g><g><path d="M64.264,289.998c-2.21,0-4.039-1.789-4.039-4s1.75-4,3.953-4h0.086c2.203,0,4,1.789,4,4S66.467,289.998,64.264,289.998z      "></path></g></g><g><g><path d="M80.262,289.998c-2.21,0-4.039-1.789-4.039-4s1.75-4,3.953-4h0.086c2.203,0,4,1.789,4,4S82.465,289.998,80.262,289.998z      "></path></g></g><g><g><path d="M80.262,305.996c-2.21,0-4.039-1.789-4.039-4s1.75-4,3.953-4h0.086c2.203,0,4,1.789,4,4S82.465,305.996,80.262,305.996z      "></path></g></g><g><g><path d="M72.263,297.996c-2.21,0-4.039-1.787-4.039-3.998s1.75-4,3.953-4h0.086c2.203,0,4,1.789,4,4      S74.466,297.996,72.263,297.996z"></path></g></g><g><g><path d="M64.264,305.996c-2.21,0-4.039-1.789-4.039-4s1.75-4,3.953-4h0.086c2.203,0,4,1.789,4,4S66.467,305.996,64.264,305.996z      "></path></g></g><g><g><path d="M116.258,433.982c-2.21,0-4.039-1.789-4.039-4s1.75-4,3.953-4h0.086c2.203,0,4,1.789,4,4      S118.461,433.982,116.258,433.982z"></path></g></g><g><g><path d="M140.013,457.979H4.029c-2.21,0-4-1.789-4-4V246.007c0-2.21,1.789-4,4-4h135.984c2.21,0,4,1.789,4,4v207.972      C144.013,456.189,142.224,457.979,140.013,457.979z M8.028,449.98h127.985V250.006H8.028V449.98z"></path></g></g><g><g><path d="M72.021,433.982c-26.465,0-47.995-21.529-47.995-47.996c0-26.465,21.529-47.994,47.995-47.994      c26.466,0,47.995,21.529,47.995,47.994C120.016,412.453,98.487,433.982,72.021,433.982z M72.021,345.992      c-22.052,0-39.996,17.943-39.996,39.994c0,22.053,17.943,39.996,39.996,39.996s39.996-17.943,39.996-39.996      C112.017,363.936,94.073,345.992,72.021,345.992z"></path></g></g><g><g><path d="M72.021,401.984c-8.819,0-15.998-7.178-15.998-15.998c0-8.818,7.179-15.998,15.998-15.998s15.999,7.18,15.999,15.998      C88.02,394.807,80.84,401.984,72.021,401.984z M72.021,377.988c-4.414,0-7.999,3.586-7.999,7.998c0,4.414,3.585,8,7.999,8      s7.999-3.586,7.999-8C80.02,381.574,76.435,377.988,72.021,377.988z"></path></g></g><g><g><path d="M72.021,321.994c-15.436,0-27.997-12.561-27.997-27.996S56.585,266,72.021,266s27.997,12.562,27.997,27.998      S87.457,321.994,72.021,321.994z M72.021,274c-11.03,0-19.998,8.967-19.998,19.998c0,11.029,8.968,19.998,19.998,19.998      s19.998-8.969,19.998-19.998C92.019,282.967,83.051,274,72.021,274z"></path></g></g></g><g><g><g><path d="M396.227,345.992c-2.211,0-4.039-1.789-4.039-4s1.75-4,3.953-4h0.086c2.202,0,3.999,1.789,3.999,4      S398.429,345.992,396.227,345.992z"></path></g></g><g><g><path d="M396.227,433.982c-2.211,0-4.039-1.789-4.039-4s1.75-4,3.953-4h0.086c2.202,0,3.999,1.789,3.999,4      S398.429,433.982,396.227,433.982z"></path></g></g><g><g><path d="M484.216,345.992c-2.21,0-4.038-1.789-4.038-4s1.75-4,3.952-4h0.086c2.203,0,4,1.789,4,4      S486.419,345.992,484.216,345.992z"></path></g></g><g><g><path d="M432.222,289.998c-2.21,0-4.038-1.789-4.038-4s1.75-4,3.952-4h0.086c2.203,0,4,1.789,4,4      S434.425,289.998,432.222,289.998z"></path></g></g><g><g><path d="M448.221,289.998c-2.211,0-4.039-1.789-4.039-4s1.75-4,3.953-4h0.086c2.202,0,3.999,1.789,3.999,4      S450.423,289.998,448.221,289.998z"></path></g></g><g><g><path d="M448.221,305.996c-2.211,0-4.039-1.789-4.039-4s1.75-4,3.953-4h0.086c2.202,0,3.999,1.789,3.999,4      S450.423,305.996,448.221,305.996z"></path></g></g><g><g><path d="M440.221,297.996c-2.21,0-4.038-1.787-4.038-3.998s1.75-4,3.952-4h0.086c2.203,0,4,1.789,4,4      S442.424,297.996,440.221,297.996z"></path></g></g><g><g><path d="M432.222,305.996c-2.21,0-4.038-1.789-4.038-4s1.75-4,3.952-4h0.086c2.203,0,4,1.789,4,4      S434.425,305.996,432.222,305.996z"></path></g></g><g><g><path d="M484.216,433.982c-2.21,0-4.038-1.789-4.038-4s1.75-4,3.952-4h0.086c2.203,0,4,1.789,4,4      S486.419,433.982,484.216,433.982z"></path></g></g><g><g><path d="M507.971,457.979H371.986c-2.21,0-3.999-1.789-3.999-4V246.007c0-2.21,1.789-4,3.999-4h135.984c2.211,0,4,1.789,4,4      v207.972C511.971,456.189,510.182,457.979,507.971,457.979z M375.986,449.98h127.985V250.006H375.986V449.98z"></path></g></g><g><g><path d="M439.979,433.982c-26.465,0-47.994-21.529-47.994-47.996c0-26.465,21.529-47.994,47.994-47.994      c26.466,0,47.995,21.529,47.995,47.994C487.974,412.453,466.444,433.982,439.979,433.982z M439.979,345.992      c-22.052,0-39.995,17.943-39.995,39.994c0,22.053,17.943,39.996,39.995,39.996c22.053,0,39.996-17.943,39.996-39.996      C479.975,363.936,462.031,345.992,439.979,345.992z"></path></g></g><g><g><path d="M439.979,401.984c-8.818,0-15.998-7.178-15.998-15.998c0-8.818,7.18-15.998,15.998-15.998      c8.82,0,15.998,7.18,15.998,15.998C455.977,394.807,448.799,401.984,439.979,401.984z M439.979,377.988      c-4.413,0-7.998,3.586-7.998,7.998c0,4.414,3.585,8,7.998,8c4.414,0,8-3.586,8-8      C447.979,381.574,444.393,377.988,439.979,377.988z"></path></g></g><g><g><path d="M439.979,321.994c-15.436,0-27.996-12.561-27.996-27.996S424.543,266,439.979,266c15.437,0,27.997,12.562,27.997,27.998      S455.415,321.994,439.979,321.994z M439.979,274c-11.029,0-19.997,8.967-19.997,19.998c0,11.029,8.968,19.998,19.997,19.998      c11.03,0,19.998-8.969,19.998-19.998C459.977,282.967,451.009,274,439.979,274z"></path></g></g></g><g><g><path d="M12.028,461.979c-2.21,0-4-1.789-4-4v-4c0-2.211,1.789-3.998,4-3.998s4,1.787,4,3.998v4     C16.027,460.189,14.238,461.979,12.028,461.979z"></path></g></g><g><g><path d="M132.014,461.979c-2.21,0-4-1.789-4-4v-4c0-2.211,1.789-3.998,4-3.998s4,1.787,4,3.998v4     C136.014,460.189,134.225,461.979,132.014,461.979z"></path></g></g><g><g><path d="M164.011,461.979c-2.211,0-4-1.789-4-4v-4c0-2.211,1.789-3.998,4-3.998c2.21,0,3.999,1.787,3.999,3.998v4     C168.01,460.189,166.221,461.979,164.011,461.979z"></path></g></g><g><g><path d="M379.986,461.979c-2.211,0-4-1.789-4-4v-4c0-2.211,1.789-3.998,4-3.998c2.21,0,3.999,1.787,3.999,3.998v4     C383.985,460.189,382.196,461.979,379.986,461.979z"></path></g></g><g><g><path d="M347.989,461.979c-2.21,0-3.999-1.789-3.999-4v-4c0-2.211,1.789-3.998,3.999-3.998c2.211,0,4,1.787,4,3.998v4     C351.989,460.189,350.2,461.979,347.989,461.979z"></path></g></g><g><g><path d="M499.973,461.979c-2.211,0-4-1.789-4-4v-4c0-2.211,1.789-3.998,4-3.998c2.21,0,3.999,1.787,3.999,3.998v4     C503.972,460.189,502.183,461.979,499.973,461.979z"></path></g></g><g><g><path d="M256,433.982c-30.872,0-55.994-25.123-55.994-55.994s25.122-55.994,55.994-55.994c30.871,0,55.994,25.123,55.994,55.994     S286.871,433.982,256,433.982z M256,329.994c-26.466,0-47.995,21.527-47.995,47.994c0,26.465,21.529,47.994,47.995,47.994     s47.994-21.529,47.994-47.994C303.994,351.521,282.466,329.994,256,329.994z"></path></g></g><g><g><path d="M256,417.982c-22.052,0-39.995-17.943-39.995-39.994c0-22.053,17.943-39.996,39.995-39.996     c22.053,0,39.995,17.943,39.995,39.996C295.995,400.039,278.053,417.982,256,417.982z M256,345.992     c-17.646,0-31.996,14.35-31.996,31.996s14.35,31.996,31.996,31.996s31.996-14.35,31.996-31.996S273.646,345.992,256,345.992z"></path></g></g><g><g><path d="M256,250.006c-13.233,0-23.997-10.765-23.997-23.997c0-13.233,10.764-23.998,23.997-23.998     c13.232,0,23.997,10.764,23.997,23.998C279.997,239.242,269.232,250.006,256,250.006z M256,210.011     c-8.819,0-15.998,7.175-15.998,15.998s7.179,15.998,15.998,15.998s15.998-7.175,15.998-15.998S264.819,210.011,256,210.011z"></path></g></g><g><g><path d="M256,210.011c-2.211,0-4-1.789-4-4v-4c0-2.21,1.789-4,4-4s4,1.789,4,4v4C260,208.222,258.211,210.011,256,210.011z"></path></g></g><g><g><path d="M256,285.998c-6.616,0-11.999-5.383-11.999-11.998c0-6.617,5.382-11.994,11.999-11.994s11.998,5.377,11.998,11.994     C267.998,280.615,262.616,285.998,256,285.998z M256,270c-2.203,0-4,1.797-4,4s1.796,4,4,4s4-1.797,4-4S258.203,270,256,270z"></path></g></g><g><g><path d="M355.988,122.021c-6.616,0-11.998-5.382-11.998-11.999c0-6.616,5.382-11.998,11.998-11.998     c6.617,0,11.999,5.382,11.999,11.998C367.987,116.639,362.605,122.021,355.988,122.021z M355.988,106.023     c-2.203,0-3.999,1.792-3.999,3.999c0,2.207,1.796,4,3.999,4s4-1.793,4-4C359.988,107.815,358.191,106.023,355.988,106.023z"></path></g></g><g><g><path d="M363.987,114.022c-2.21,0-3.999-1.789-3.999-4V62.028c0-2.211,1.789-4,3.999-4c2.211,0,4,1.789,4,4v47.994     C367.987,112.233,366.198,114.022,363.987,114.022z"></path></g></g><g><g><path d="M403.983,114.022c-6.616,0-11.999-5.382-11.999-11.999c0-6.616,5.383-11.998,11.999-11.998s11.998,5.382,11.998,11.998     C415.981,108.64,410.6,114.022,403.983,114.022z M403.983,98.024c-2.203,0-4,1.792-4,3.999c0,2.207,1.797,4,4,4     c2.202,0,3.999-1.793,3.999-4C407.982,99.816,406.186,98.024,403.983,98.024z"></path></g></g><g><g><path d="M411.982,106.023c-2.211,0-4-1.789-4-4V54.029c0-2.211,1.789-4,4-4s3.999,1.789,3.999,4v47.994     C415.981,104.234,414.193,106.023,411.982,106.023z"></path></g></g><g><g><path d="M363.979,66.027c-1.913,0-3.608-1.386-3.937-3.343c-0.367-2.18,1.109-4.238,3.289-4.601l47.994-7.999     c2.117-0.391,4.233,1.105,4.601,3.289c0.367,2.18-1.108,4.238-3.288,4.601l-47.995,7.999     C364.425,66.012,364.198,66.027,363.979,66.027z"></path></g></g><g><g><path d="M363.979,82.026c-1.913,0-3.608-1.387-3.937-3.344c-0.367-2.18,1.109-4.238,3.289-4.601l47.994-7.999     c2.117-0.395,4.233,1.105,4.601,3.289c0.367,2.18-1.108,4.238-3.288,4.601l-47.995,8     C364.425,82.01,364.198,82.026,363.979,82.026z"></path></g></g><g><g><path d="M439.979,178.015c-8.818,0-15.998-7.175-15.998-15.999s7.18-15.998,15.998-15.998c8.82,0,15.998,7.175,15.998,15.998     S448.799,178.015,439.979,178.015z M439.979,154.017c-4.413,0-7.998,3.59-7.998,7.999c0,4.41,3.585,7.999,7.998,7.999     c4.414,0,8-3.589,8-7.999C447.979,157.607,444.393,154.017,439.979,154.017z"></path></g></g><g><g><path d="M451.978,166.016c-2.211,0-3.999-1.789-3.999-4v-43.995c0-2.21,1.788-4,3.999-4s3.999,1.789,3.999,4v43.995     C455.977,164.227,454.188,166.016,451.978,166.016z"></path></g></g><g><g><path d="M458.094,125.079c-1.461,0-2.827-0.219-4.101-0.648c-3.93-1.332-5.405-4.195-5.655-4.754     c-0.914-2.011-0.023-4.382,1.983-5.296c1.961-0.887,4.242-0.074,5.21,1.805c0.578,0.835,3.516,2.07,10.562-1.691     c1.937-1.035,4.358-0.316,5.413,1.645c1.038,1.949,0.305,4.37-1.648,5.409C465.461,123.9,461.523,125.079,458.094,125.079z"></path></g></g></g></g>
</svg>
</g></svg></svg>